<mxfile host="app.diagrams.net" modified="2023-07-02T10:15:23.313Z" agent="Mozilla/5.0 (Windows NT 10.0; Win64; x64; rv:109.0) Gecko/20100101 Firefox/114.0" version="21.5.2" etag="iu6SLxLLp_RG9K9R2GqW" type="github">
  <diagram name="Page-1" id="nD4KJLcVbMspljPUOF7H">
    <mxGraphModel>
      <root>
        <mxCell id="0" />
        <mxCell id="1" parent="0" />
      </root>
    </mxGraphModel>
  </diagram>
</mxfile>
